<svg width="35" height="35" viewBox="0 0 35 35" fill="none" xmlns="http://www.w3.org/2000/svg">
<path d="M17.0149 0.971191C7.61833 0.971191 0 8.58855 0 17.9841C0 24.952 4.18931 30.9361 10.185 33.5679C10.1364 32.3798 10.1762 30.9536 10.4815 29.6615C10.8082 28.2799 12.67 20.3904 12.67 20.3904C12.67 20.3904 12.1265 19.3044 12.1265 17.6983C12.1265 15.1763 13.5887 13.2941 15.4078 13.2941C16.9556 13.2941 17.7022 14.4549 17.7022 15.8481C17.7022 17.4037 16.7106 19.7312 16.1992 21.8856C15.7733 23.6901 17.1053 25.162 18.8854 25.162C22.1074 25.162 24.2803 21.0233 24.2803 16.1165C24.2803 12.387 21.7681 9.59577 17.2006 9.59577C12.04 9.59577 8.82583 13.4448 8.82583 17.7449C8.82583 19.2266 9.26139 20.2717 9.94681 21.0816C10.2608 21.454 10.3046 21.6027 10.1918 22.0315C10.1092 22.3436 9.9225 23.098 9.84472 23.3955C9.73097 23.8262 9.38194 23.9817 8.99306 23.8213C6.61597 22.8511 5.50861 20.2474 5.50861 17.322C5.50861 12.4881 9.58514 6.69272 17.6692 6.69272C24.1656 6.69272 28.4394 11.3924 28.4394 16.4383C28.4394 23.1116 24.7304 28.0991 19.2597 28.0991C17.4232 28.0991 15.6946 27.1055 15.1035 25.9767C15.1035 25.9767 14.1157 29.8967 13.9076 30.6551C13.546 31.9676 12.8401 33.2772 12.1946 34.299C13.7249 34.7511 15.3397 34.997 17.0168 34.997C26.4114 34.997 34.0288 27.3797 34.0288 17.9822C34.0268 8.58855 26.4094 0.971191 17.0149 0.971191Z" fill="#F1F1F1"/>
</svg>
